<svg version="1.1" id="Layer_1" xmlns="http://www.w3.org/2000/svg" x="0" y="0" viewBox="0 0 43.13 44.09" style="enable-background:new 0 0 43.13 44.09" xml:space="preserve"><style>.st0{fill:#008428}.st1{fill:#fff}</style><path class="st0" d="M21.57 43.13C9.67 43.13 0 33.46 0 21.57S9.67 0 21.57 0s21.57 9.67 21.57 21.57-9.68 21.56-21.57 21.56z"/><path class="st1" d="M19.46 12.89c-4.74 3.63-7.63 9.73-6.87 15.26 0 0 .59 5.87 6.61 6.43 5.18.48 7.68-4.45 7.68-4.45 3.33-7.54-.95-9.9-1.76-12.65-1.46-4.99 1.06-8.47 1.06-8.47-2.26.66-6.72 3.88-6.72 3.88z"/><path class="st0" d="M22.83 43.09c-.21 0-.42-.11-.54-.3-.23-.38-5.72-9.37-2.88-19.45.1-.34.45-.54.79-.44.34.1.54.45.44.79-2.69 9.52 2.68 18.34 2.73 18.43.19.3.09.69-.21.88-.1.06-.22.09-.33.09z"/><path class="st1" d="M25.47 44.09c-.19 0-.38-.09-.51-.25-2.85-3.77-4.52-7.8-4.94-11.99-.04-.35.22-.66.57-.7.36-.04.66.22.7.57.4 3.95 1.98 7.77 4.69 11.35a.636.636 0 0 1-.51 1.02z"/></svg>