<svg xmlns="http://www.w3.org/2000/svg" viewBox="0 0 42.63 42.63" style="enable-background:new 0 0 42.63 42.63" xml:space="preserve"><path d="M21.31 42.63C9.56 42.63 0 33.07 0 21.31S9.56 0 21.31 0s21.31 9.56 21.31 21.31-9.55 21.32-21.31 21.32z" style="fill:#008cad"/><path d="M33.29 16.64v18.13l-14.08 1.76v-3.88c0-.32-.27-.59-.59-.59-.33 0-.59.27-.59.59v3.79l-8.87-3.05V15.72l4.7-5.07 3.6 6.6-5.64-1.35a.602.602 0 0 0-.71.44c-.07.32.12.64.44.72l6.48 1.54v11.5a.591.591 0 0 0 1.18 0V18.68l12.04-.9c.32-.02.57-.31.54-.64a.584.584 0 0 0-.63-.54l-12.2.9-3.75-6.88 11.31-.65c.33-.01.58-.3.56-.62-.02-.33-.26-.58-.63-.56l-11.92.69v-3.6l14.19-.76-.02 4.11 4.59 7.41z" style="fill:#fff"/></svg>