<svg version="1.1" id="Layer_1" xmlns="http://www.w3.org/2000/svg" x="0" y="0" viewBox="0 0 43.13 43.13" style="enable-background:new 0 0 43.13 43.13" xml:space="preserve"><style>.st0{fill:#995ecc}.st1{fill:#06605b}.st2{fill:#fff}</style><path class="st0" d="M21.57 43.13C9.67 43.13 0 33.46 0 21.57S9.67 0 21.57 0s21.57 9.67 21.57 21.57-9.68 21.56-21.57 21.56z"/><path class="st1" d="M21.38 21.89a.47.47 0 0 1-.33-.14l-4.59-4.59a.47.47 0 0 1 0-.66.47.47 0 0 1 .66 0l4.59 4.59c.18.18.18.48 0 .66-.09.1-.21.14-.33.14z"/><path class="st1" d="M21.38 22.35c-.25 0-.48-.1-.65-.27l-4.59-4.59a.915.915 0 0 1 0-1.3.93.93 0 0 1 1.31 0l4.59 4.59c.18.17.27.41.27.65 0 .25-.1.48-.27.65-.18.17-.42.27-.66.27zm-4.59-5.53 4.58 4.62h.01l-4.59-4.62zM21.18 29.01a.47.47 0 0 1-.33-.14l-2.84-2.84a.47.47 0 0 1 0-.66.47.47 0 0 1 .66 0l2.84 2.84c.18.18.18.48 0 .66-.09.1-.21.14-.33.14z"/><path class="st1" d="M21.18 29.47c-.25 0-.48-.1-.66-.27l-2.84-2.84a.93.93 0 0 1 0-1.31.93.93 0 0 1 1.31 0l2.84 2.84c.36.36.36.95 0 1.31-.17.17-.4.27-.65.27zm-2.83-3.77 2.83 2.86h.01l-2.84-2.86z"/><path class="st2" d="M32.23 32.37H10.35V21.6l2.4-7.51 8.44-5 8.64 5 2.4 7.36z"/><path class="st2" d="M32.53 32.67H10.05l.01-11.16 2.43-7.62 8.69-5.15 8.89 5.14 2.45 7.56v11.23zm-21.88-.6h21.28V21.49l-2.35-7.2-8.39-4.85L13 14.29l-2.35 7.36v10.42z"/><path class="st2" d="M8.29 22.13a.603.603 0 0 1-.57-.78l2.92-9.14 10.54-6.24 10.77 6.23 2.92 8.96c.1.31-.07.65-.38.75-.32.1-.65-.07-.76-.38L30.95 13l-9.77-5.65L11.64 13l-2.78 8.71a.6.6 0 0 1-.57.42z"/><path class="st0" d="M29.22 34.02H13.19V20.23h16.04v13.79zm-15.07-.96h14.12V21.18H14.15v11.88z"/><path class="st0" d="M30.05 34.02H12.36l8.09-6.89-6.96-5.91.62-.73 7.08 6.01 7.24-6.16.62.73-7.12 6.06 8.12 6.89zm-15.08-.96h12.47l-6.24-5.3-6.23 5.3zM23.65 18.43h-5.13V13.3h5.13v5.13zm-4.17-.96h3.21v-3.21h-3.21v3.21z"/></svg>