<svg xmlns="http://www.w3.org/2000/svg" viewBox="0 0 42.281 42.281"><path d="M21.14 42.28C9.483 42.28 0 32.798 0 21.14S9.483 0 21.14 0s21.14 9.483 21.14 21.14-9.483 21.14-21.14 21.14Z" style="fill:#e24d4d"/><path style="fill:#fff" d="m12.955 36.965 8.133-3.621 8.134 3.62H12.955z"/><path style="fill:#fff" d="M20.388 20.395h1.504v14.759h-1.504z"/><path d="M28.757 6.521v7.666a7.668 7.668 0 1 1-15.337 0V6.52" style="fill:#fff"/><path d="M17.865 19.107a.599.599 0 0 1-.309-.085c-2.812-1.684-2.492-4.772-2.478-4.902a.61.61 0 0 1 .665-.529.602.602 0 0 1 .531.663c-.01.1-.235 2.457 1.9 3.735a.602.602 0 0 1-.31 1.118Z" style="fill:#e24d4d"/></svg>