<svg xmlns="http://www.w3.org/2000/svg" viewBox="0 0 42.69 42.69"><path d="M21.345 42.69C9.575 42.69 0 33.115 0 21.345S9.575 0 21.345 0 42.69 9.575 42.69 21.345 33.115 42.69 21.345 42.69Z" style="fill:#b31f3b"/><path d="M7.357 33.854c-.017 0-.035 0-.053-.003a.445.445 0 0 1-.388-.494c.139-1.16 1.883-4.395 4.987-4.809a.445.445 0 1 1 .118.882c-2.657.354-4.12 3.183-4.223 4.033a.444.444 0 0 1-.441.391ZM11.263 35.986c-.017 0-.035 0-.052-.003a.444.444 0 0 1-.39-.494c.496-4.162 4.942-4.803 4.987-4.809a.439.439 0 0 1 .5.381.445.445 0 0 1-.382.5c-.155.022-3.808.562-4.222 4.033a.445.445 0 0 1-.44.392ZM34.799 33.791a.445.445 0 0 1-.441-.392c-.414-3.47-4.068-4.01-4.224-4.032a.445.445 0 0 1 .118-.882c.046.006 4.492.646 4.988 4.809a.444.444 0 0 1-.441.497ZM31.334 35.986a.445.445 0 0 1-.441-.392c-.416-3.485-4.184-4.027-4.222-4.032a.445.445 0 1 1 .118-.882c.045.006 4.49.646 4.986 4.809a.444.444 0 0 1-.44.497Z" style="fill:#fff"/><path d="m31.113 22.482-.91-1.576a10.629 10.629 0 0 0-18.41 0l-.902 1.562a5.543 5.543 0 0 0 .953 6.761l4.25 4.101a7.1 7.1 0 0 0 9.877-.017l4.204-4.084a5.543 5.543 0 0 0 .938-6.747Z" style="fill:#fff"/><path d="M14.144 20.107h-1.68a3.193 3.193 0 0 1-3.19-3.19v-1.27a.445.445 0 0 1 .89 0v1.27c0 1.269 1.032 2.3 2.3 2.3h1.68a.445.445 0 0 1 0 .89Z" style="fill:#fff"/><path d="M9.899 16c-2.129 0-3.86-1.73-3.86-3.86S7.77 8.282 9.9 8.282v.89l-.01-.89h.444c-.001.08.01 2.51.01 3.415h3.416v.445a3.864 3.864 0 0 1-3.86 3.86Zm-.445-6.796a2.975 2.975 0 0 0-2.526 2.937 2.974 2.974 0 0 0 2.97 2.97 2.974 2.974 0 0 0 2.938-2.525H9.454V9.204ZM29.701 20.107h-1.68a.445.445 0 0 1 0-.89h1.68a2.303 2.303 0 0 0 2.301-2.3v-1.27a.445.445 0 0 1 .89 0v1.27a3.194 3.194 0 0 1-3.19 3.19Z" style="fill:#fff"/><path d="M32.338 8.137c2.129 0 3.861 1.731 3.861 3.86s-1.732 3.86-3.86 3.86-3.86-1.732-3.86-3.86v-.445h3.415c0-.9.008-3.306.006-3.405m-2.499 4.294a2.974 2.974 0 0 0 2.937 2.526 2.974 2.974 0 0 0 2.972-2.97 2.976 2.976 0 0 0-2.526-2.938v.056l-.001 3.326H29.4ZM11.342 25.686c-4.534 0-6.065-2.458-6.132-2.57a.445.445 0 0 1 .76-.46c.075.117 1.637 2.519 6.49 2.09.262-.021.46.16.482.404.021.245-.16.46-.404.482-.42.037-.819.054-1.196.054ZM31.255 25.686c-.377 0-.775-.017-1.196-.054a.445.445 0 0 1 .079-.886c4.88.43 6.425-1.988 6.488-2.09a.446.446 0 0 1 .61-.148.443.443 0 0 1 .151.607c-.067.114-1.6 2.57-6.132 2.57Z" style="fill:#fff"/></svg>