<svg id="b" data-name="Layer_2" xmlns="http://www.w3.org/2000/svg" viewBox="0 0 42.28 42.28">
  <g id="c" data-name="Layer_7">
    <g>
      <path d="M21.14,42.28C9.48,42.28,0,32.8,0,21.14S9.48,0,21.14,0s21.14,9.48,21.14,21.14-9.48,21.14-21.14,21.14Z"/>
      <g>
        <path d="M22.52,13.08c1.06,0,1.97.12,2.75.37s1.41.6,1.92,1.04c.5.45.88.98,1.12,1.61.24.62.37,1.31.37,2.05s-.13,1.48-.38,2.12c-.26.64-.64,1.19-1.15,1.66-.51.46-1.15.82-1.92,1.08-.77.26-1.67.38-2.7.38h-2.2v5.6h-2.95v-15.91h5.15ZM22.52,21.08c.54,0,1.01-.07,1.41-.2.4-.14.74-.33,1-.58.27-.25.47-.56.6-.92.13-.36.2-.77.2-1.22s-.07-.81-.2-1.16-.33-.64-.59-.88c-.26-.24-.59-.43-1-.56-.4-.13-.88-.19-1.42-.19h-2.2v5.71h2.2Z"/>
        <path d="M22.52,13.08c1.06,0,1.97.12,2.75.37s1.41.6,1.92,1.04c.5.45.88.98,1.12,1.61.24.62.37,1.31.37,2.05s-.13,1.48-.38,2.12c-.26.64-.64,1.19-1.15,1.66-.51.46-1.15.82-1.92,1.08-.77.26-1.67.38-2.7.38h-2.2v5.6h-2.95v-15.91h5.15ZM22.52,21.08c.54,0,1.01-.07,1.41-.2.4-.14.74-.33,1-.58.27-.25.47-.56.6-.92.13-.36.2-.77.2-1.22s-.07-.81-.2-1.16-.33-.64-.59-.88c-.26-.24-.59-.43-1-.56-.4-.13-.88-.19-1.42-.19h-2.2v5.71h2.2Z" style="fill: #fff;"/>
      </g>
    </g>
  </g>
</svg>