<svg version="1.1" id="Layer_1" xmlns="http://www.w3.org/2000/svg" x="0" y="0" viewBox="0 0 42.63 42.63" style="enable-background:new 0 0 42.63 42.63" xml:space="preserve"><style>.st1,.st2{fill:#fff}.st2{stroke:#000;stroke-width:4;stroke-linecap:round;stroke-miterlimit:10}.st3{fill:#f4ba00}</style><path d="M21.31 42.63C9.56 42.63 0 33.07 0 21.31S9.56 0 21.31 0c11.75 0 21.31 9.56 21.31 21.31s-9.55 21.32-21.31 21.32z" style="fill:#231f20"/><path class="st1" d="M17.8 34.57c-3.51.44-6.4-1.22-8.38-4.36-1.27-2.01-1.99-4.33-2.13-6.92-.16-2.87.36-5.7 1.55-8.41.79-1.8 1.76-3.2 2.98-4.31 1.8-1.63 3.86-1.91 6.13-.84 1.32.62 2.5 1.5 3.63 2.68.26.27.52.57.78.87.18.21.36.44.53.67.1.13.19.26.29.39l.01.02.23.31 1.3 2.2c.13.24.18.38.18.38.13.26.25.54.36.81.16.39.31.79.45 1.2l.36 1.24c.19.8.33 1.58.39 2.33.21 2.4-.04 4.35-.81 6.13-.07.2-.73 1.93-2.51 3.49-.02-.01-2 1.52-5.34 2.12z" id="YYXARF.tif_00000129176138333601124310000014142211171102176650_"/><circle class="st3" cx="17.15" cy="24.92" r="5.95"/><path class="st3" d="M9.74 20.07h-.03a.344.344 0 0 1-.32-.38c.29-3.94 2.69-6.3 2.79-6.4a.36.36 0 0 1 .5.01c.14.14.13.36-.01.5-.02.02-2.31 2.29-2.58 5.95-.02.18-.17.32-.35.32z"/><path class="st1" d="M21.53 35.27c-3.89-.74-6.39-3.5-7.43-7.53-.66-2.57-.62-5.3.11-8.11.81-3.11 2.34-5.95 4.54-8.43 1.46-1.64 2.98-2.81 4.66-3.56 2.48-1.12 4.78-.71 6.82 1.21 1.19 1.12 2.15 2.46 2.94 4.1.18.38.36.78.53 1.2a18.787 18.787 0 0 1 .51 1.41l.01.02.13.42.63 2.79c.05.3.06.47.06.47.04.32.08.66.1.98.04.47.06.95.07 1.43l-.05 1.45c-.07.92-.2 1.8-.38 2.62-.6 2.63-1.54 4.62-2.97 6.25-.14.19-1.44 1.8-3.88 2.85 0 0-2.63.95-6.4.43z" id="YYXARF.tif_00000154398109912564503420000002980499554989059498_"/><circle class="st3" cx="24.16" cy="24.78" r="6.66"/><path class="st3" d="M32.49 17.86c-.18 0-.35-.13-.38-.32-.7-4.06-3.5-6.33-3.52-6.35a.382.382 0 0 1-.06-.54c.13-.17.38-.19.54-.06.12.1 3.06 2.47 3.8 6.83.04.21-.11.41-.31.44h-.07z"/></svg>