<svg version="1.1" id="Layer_1" xmlns="http://www.w3.org/2000/svg" x="0" y="0" viewBox="0 0 42.69 42.69" style="enable-background:new 0 0 42.69 42.69" xml:space="preserve"><style>.st1{fill:#fff}</style><path d="M21.34 42.69C9.58 42.69 0 33.11 0 21.34S9.58 0 21.34 0s21.34 9.58 21.34 21.34-9.57 21.35-21.34 21.35z" style="fill:#8c5334"/><path class="st1" d="M10.68 24.06c-.02 0-.05 0-.06.01.39-.89.95-1.73 1.64-2.47l1.35-1.46A8.037 8.037 0 0 0 15.63 16l.32-1.97c.25-1.59.91-3.06 1.91-4.22l2.25-2c.26-.18.55-.34.83-.49 1.64-.85 3.31-1.19 4.97-.85-1.34.52-4.57 2.76-5.95 5.82-1.19 2.64-1.48 5.16-1.51 5.42-.3 1.71-1.32 2.98-2.5 4.46-.57.7-1.17 1.46-1.76 2.34-2.03-.51-3.39-.45-3.51-.45zM12.06 30.39c-.09 1.72.3 3.09.64 3.97-1.26-1.01-2.13-2.44-2.55-4.11h.05c.01 0 .74-.05 1.86.14zM13.37 25.88c-.07.14-.15.28-.23.44-.44.89-.72 1.74-.89 2.54-1.27-.2-2.1-.13-2.18-.13-.06 0-.12.01-.17.04-.08-.97-.02-2 .19-3.05.02-.12.05-.24.08-.36l.02.02c.15.13.36.2.56.19.03 0 1.05-.04 2.62.31zM15.15 31.31l-1.13 2.24c-.32-.94-.46-1.87-.45-2.82.5.14 1.04.33 1.58.58zM15.84 29.94c-.74-.34-1.43-.58-2.09-.76.14-.74.4-1.47.76-2.19.12-.24.24-.46.37-.69.69.21 1.47.52 2.31.94l-1.35 2.7z"/><path class="st1" d="M32.23 16.81c-.31 1.51-1.06 2.93-2.16 4.11l-1.35 1.47a7.969 7.969 0 0 0-2.02 4.13l-.32 1.97c-.25 1.6-.91 3.06-1.91 4.23-1.92 2.24-4.42 3.46-6.83 3.46-1.02 0-2.02-.23-2.95-.68l-.07-.04a.9.9 0 0 0 .32-.37L16.49 32c.55.33 1.1.72 1.65 1.19.13.12.31.18.49.18.23 0 .44-.09.58-.26.13-.15.19-.36.18-.56a.77.77 0 0 0-.26-.52c-.65-.55-1.3-1.01-1.94-1.39l1.34-2.67c1.09.65 2.24 1.49 3.39 2.59.14.13.33.2.52.2.21 0 .42-.08.56-.24.14-.14.21-.33.21-.55a.701.701 0 0 0-.25-.52 21.98 21.98 0 0 0-3.75-2.86l1.34-2.68a.759.759 0 0 0-1.35-.69l-1.32 2.63c-.76-.37-1.48-.66-2.16-.9.46-.65.94-1.26 1.41-1.84 1.27-1.58 2.45-3.07 2.82-5.22.01-.09 1.09-9.65 7.8-10.27.21-.02.4-.13.52-.3l.12.06c3.14 1.53 4.68 5.33 3.84 9.43z"/></svg>