<svg xmlns="http://www.w3.org/2000/svg" viewBox="0 0 42.28 42.28" style="enable-background:new 0 0 42.28 42.28" xml:space="preserve"><path d="M21.14 42.28C9.48 42.28 0 32.8 0 21.14S9.48 0 21.14 0s21.14 9.48 21.14 21.14-9.48 21.14-21.14 21.14" style="fill:#d16002"/><path d="M34.42 21.58c-.5.63-1.2 1.01-1.96 1.15h-2.68a.591.591 0 0 0 0 1.18h2.44v2.67c0 4.51-3.64 8.24-8.14 8.39l-2.03 1.55c-.32.25-.72.39-1.13.39-.4 0-.8-.14-1.13-.39l-2.03-1.55c-4.49-.14-8.13-3.88-8.13-8.39v-2.67h16.4a.591.591 0 0 0 0-1.18H9.64v-.02c-.7-.16-1.33-.55-1.79-1.13-.61-.78-.85-1.76-.62-2.72.49-2.18 1.53-4.24 2.97-5.97l.16-.21c.09-.11.14-.18.33-.36l1.73-1.56c.25-.19.48-.35.72-.52 2.15-1.46 4.65-2.29 7.25-2.42V4.48a.749.749 0 1 1 1.5 0v3.34c6.37.33 11.72 4.77 13.15 11.04.23.96.01 1.95-.62 2.72z" style="fill:#fff"/></svg>