<svg version="1.1" id="Layer_1" xmlns="http://www.w3.org/2000/svg" x="0" y="0" viewBox="0 0 43.13 43.13" style="enable-background:new 0 0 43.13 43.13" xml:space="preserve"><style>.st1{fill:#fff}</style><path d="M21.57 43.13C9.67 43.13 0 33.46 0 21.57S9.67 0 21.57 0s21.57 9.67 21.57 21.57-9.68 21.56-21.57 21.56z" style="fill:#a519a5"/><path class="st1" d="M21.41 26.15c-.31.8-.74 1.47-1.31 2.03-.57.56-1.26.98-2.08 1.28-.81.3-1.73.45-2.75.45-1.11 0-2.1-.18-2.98-.54a6.13 6.13 0 0 1-2.24-1.55c-.61-.67-1.09-1.49-1.42-2.46-.33-.97-.49-2.06-.49-3.28 0-1.2.16-2.27.49-3.24.33-.96.8-1.78 1.41-2.46.61-.67 1.35-1.19 2.22-1.56.87-.36 1.85-.55 2.93-.55.88 0 1.69.12 2.44.37.75.24 1.41.59 1.98 1.04.57.45 1.04.99 1.4 1.62.36.63.6 1.33.71 2.1h-3.09c-.23-.76-.65-1.34-1.24-1.76-.59-.42-1.33-.62-2.2-.62-.6 0-1.14.12-1.62.35-.48.23-.89.56-1.22.99-.33.43-.59.96-.77 1.58-.18.62-.27 1.32-.27 2.11 0 .8.09 1.51.28 2.14.19.63.45 1.17.8 1.61.35.44.77.78 1.26 1.01.49.23 1.05.35 1.66.35.51 0 .98-.07 1.4-.22.43-.14.79-.35 1.1-.61.31-.26.55-.58.73-.95.18-.37.27-.78.29-1.23l.01-.27h-3.22v-2.34h6.24v1.9c.01 1.02-.15 1.91-.45 2.71zM25.24 29.53V14.66h9.74v2.66h-6.62v3.87h6.05v2.54h-6.05v5.79h-3.12z"/></svg>