<svg version="1.1" id="Layer_1" xmlns="http://www.w3.org/2000/svg" x="0" y="0" viewBox="0 0 42.69 42.69" style="enable-background:new 0 0 42.69 42.69" xml:space="preserve"><style>.st1{fill:#fefefe}.st2{fill:none;stroke:#d89e52;stroke-width:.8;stroke-linecap:round;stroke-miterlimit:10}</style><circle cx="21.34" cy="21.34" r="21.34" style="fill:#d89e52"/><path class="st1" d="M29.63 11.84a.383.383 0 0 0-.59-.01c-1.17 1.36-5.32 5.8-4.96 10.01.46 5.5 9.06 5.74 9.99.12.69-4.17-3.34-8.75-4.44-10.12z"/><path class="st2" d="M26.55 19.68s-.83 2.07.76 3.74"/><path class="st1" d="M13.88 7.63a.378.378 0 0 0-.56.19c-.66 1.67-3.1 7.23-1.37 11.09 2.26 5.04 10.45 2.42 9.47-3.19-.73-4.18-6.04-7.16-7.54-8.09z"/><path class="st2" d="M13.57 16.05s-.1 2.23 1.95 3.28"/><path class="st1" d="M20.72 23.26a.383.383 0 0 0-.59-.01c-1.17 1.36-5.32 5.8-4.96 10.01.46 5.5 9.06 5.74 9.99.12.69-4.18-3.34-8.75-4.44-10.12z"/><path class="st2" d="M17.64 31.1s-.83 2.07.76 3.74"/></svg>