<svg version="1.1" id="Layer_1" xmlns="http://www.w3.org/2000/svg" x="0" y="0" viewBox="0 0 42.28 42.28" style="enable-background:new 0 0 42.28 42.28" xml:space="preserve"><style>.st1{fill:#fff}</style><path d="M21.14 42.28C9.48 42.28 0 32.8 0 21.14S9.48 0 21.14 0s21.14 9.48 21.14 21.14-9.48 21.14-21.14 21.14z" style="fill:#707a26"/><path class="st1" d="M20.9 30.67c-.76-3.38-3.79-5.91-7.39-5.91h-2.24V27c0 4.18 3.4 7.59 7.59 7.59h1.39v3.32c0 .36.29.65.65.65s.65-.29.65-.65v-3.32h1.42c4.18 0 7.59-3.4 7.59-7.59v-2.24H28.3c-3.61-.01-6.63 2.52-7.4 5.91zM20.89 9.53c.36 0 .65-.29.65-.65v-2.7c0-.36-.29-.65-.65-.65s-.65.29-.65.65v2.71c0 .36.29.64.65.64z"/><path class="st1" d="M29.89 9.26c-.36 0-.65.29-.65.65v5.4h-.94c-2.95 0-5.51 1.7-6.76 4.17v-8.09c0-.34-.29-.62-.65-.62s-.65.28-.65.62v8.09c-1.25-2.47-3.81-4.17-6.76-4.17h-.95v-5.4c0-.36-.29-.65-.65-.65-.36 0-.65.29-.65.65v5.57c0 .01.01.02.01.03v2.03c0 4.18 3.4 7.59 7.59 7.59h4.13c4.18 0 7.59-3.4 7.59-7.59V9.9a.662.662 0 0 0-.66-.64z"/></svg>