<svg xmlns="http://www.w3.org/2000/svg" viewBox="0 0 42.28 42.28" style="enable-background:new 0 0 42.28 42.28" xml:space="preserve"><path d="M21.14 42.28C9.48 42.28 0 32.8 0 21.14S9.48 0 21.14 0s21.14 9.48 21.14 21.14-9.48 21.14-21.14 21.14z" style="fill:#6d1717"/><path d="M18.22 24.7c.03.3.13.56.29.8.16.24.38.44.64.61.27.17.58.3.93.39.36.09.75.14 1.18.14.4 0 .76-.05 1.09-.14.33-.09.61-.22.85-.38s.43-.36.56-.59a1.513 1.513 0 0 0 .06-1.39c-.09-.19-.24-.36-.44-.5-.2-.15-.46-.28-.78-.4s-.7-.22-1.15-.32l-1.9-.4c-2.64-.55-3.96-1.94-3.96-4.16 0-.69.13-1.31.4-1.87s.64-1.04 1.13-1.44c.48-.4 1.07-.71 1.76-.92.69-.22 1.45-.32 2.29-.32.8 0 1.54.11 2.21.32.67.22 1.26.52 1.75.9.49.39.88.85 1.16 1.39.28.54.43 1.13.45 1.78h-2.87c-.03-.29-.12-.55-.27-.79-.15-.24-.34-.44-.57-.61-.23-.17-.5-.3-.82-.39-.31-.09-.65-.14-1.02-.14-.38 0-.73.04-1.04.13-.31.08-.58.21-.8.36a1.8 1.8 0 0 0-.52.58c-.12.23-.18.48-.18.75 0 .45.19.81.56 1.09.37.28.99.5 1.84.69l1.76.37c.73.15 1.36.35 1.89.59.53.24.96.53 1.3.86.34.34.59.73.75 1.17.16.44.24.95.24 1.51 0 .73-.14 1.39-.41 1.98a3.97 3.97 0 0 1-1.18 1.49c-.51.41-1.13.72-1.86.94-.73.22-1.55.33-2.46.33-.87 0-1.66-.1-2.36-.31-.71-.21-1.31-.5-1.82-.88-.5-.38-.9-.85-1.19-1.39-.29-.55-.44-1.16-.47-1.84h2.98z" style="fill:#fff"/></svg>