<svg id="b" xmlns="http://www.w3.org/2000/svg" viewBox="0 0 43.1586 43.1586"><g id="c"><g><circle cx="21.5793" cy="21.5793" r="21.5793" style="fill:#06605b;"/><g><path d="M11.4936,29.4124L6.352,14.2078h3.5928l3.4561,11.6221h.1904l3.3926-11.6221h3.4238l-5.0674,15.2046h-3.8467Z" style="fill:#fff;"/><path d="M35.5658,25.9563c-.3125,.8149-.7607,1.5068-1.3438,2.0757-.583,.5691-1.29,1.0063-2.123,1.3118-.832,.3057-1.7686,.4585-2.8076,.4585-1.1309,0-2.1465-.1843-3.0449-.5532-.8994-.3689-1.6631-.8972-2.292-1.5857s-1.1113-1.5278-1.4492-2.5183c-.3369-.9905-.5059-2.1074-.5059-3.3508,0-1.2222,.1689-2.3267,.5059-3.3137,.3379-.9868,.8184-1.8245,1.4434-2.5129,.626-.6885,1.3828-1.2188,2.2715-1.5911s1.8877-.5586,2.9971-.5586c.8994,0,1.7314,.1248,2.4971,.374,.7656,.2495,1.4404,.6025,2.0234,1.0591s1.0605,1.0081,1.4326,1.6543c.373,.6462,.6152,1.3628,.7275,2.1494h-3.1611c-.2393-.7727-.6621-1.3713-1.2695-1.7964s-1.3574-.6377-2.25-.6377c-.6104,0-1.1621,.1179-1.6543,.353-.4912,.2356-.9072,.5742-1.248,1.0168s-.6025,.9817-.7852,1.6174-.2744,1.354-.2744,2.1548c0,.8149,.0957,1.5454,.2852,2.1917s.4619,1.1958,.8164,1.6489,.7852,.7991,1.291,1.0378c.5059,.239,1.0703,.3584,1.6963,.3584,.5195,0,.9971-.0737,1.4326-.2214,.4355-.1475,.8096-.3545,1.1221-.6216,.3125-.2668,.5605-.5901,.7432-.9695,.1826-.3792,.2812-.7971,.2949-1.2537l.0107-.2742h-3.2979v-2.3918h6.3848v1.939c0,1.0186-.1562,1.9353-.4688,2.75Z" style="fill:#fff;"/></g></g></g></svg>