<svg version="1.1" id="Layer_1" xmlns="http://www.w3.org/2000/svg" x="0" y="0" viewBox="0 0 42.63 42.63" style="enable-background:new 0 0 42.63 42.63" xml:space="preserve"><style>.st1{fill:#fff}.st2{fill:none;stroke:#522c84;stroke-linecap:round;stroke-miterlimit:10}</style><path d="M21.31 42.63C9.56 42.63 0 33.07 0 21.31S9.56 0 21.31 0s21.31 9.56 21.31 21.31-9.55 21.32-21.31 21.32z" style="fill:#522c84"/><path class="st1" d="M14.91 15.75s-3.52 0-3.52 8.09l3.21-2.69M29.34 15.85s4.61.54 1.63 12.92l-2.4-3.01"/><path class="st1" d="M22.42 4.22s-.28.1-1.16.87c-.46.53-.52 1.63-.19 3.17.41 1.94-.8-.13-1.3-1.76-.28.28-.6.6-.94.96.45 1.26 1.19 3.04 1.94 3.7a.493.493 0 0 1-.32.87c-.12 0-.23-.04-.33-.12-.83-.73-1.56-2.35-2.02-3.58-.24.32-.54.74-.85 1.25.13.06.23.18.27.33.31 1.3 1.06 2.47 1.66 3.13.18.2.17.52-.03.7a.46.46 0 0 1-.33.13c-.14 0-.27-.05-.37-.16-.3-.34-1.27-1.49-1.77-3.12-2.13 4.08-4.25 12.12 2.61 23.24 0 0-2.84.65-3.91 4.37l2.49.58c.87.2 1.78-.21 2.19-1l.87-1.29 1.55 1.59c.47.52 1.18.75 1.87.61l2.33-.49c-.89-3.9-3.99-4.37-3.99-4.37a35.66 35.66 0 0 0 2.1-2.18c.2-.23.39-.46.58-.68l1.22-1.61c.3-.43.57-.86.83-1.28.36-.6.67-1.19.94-1.77 5.76-12.35-5.94-22.09-5.94-22.09zm1.09 6.4a.85.85 0 1 1-.001-1.699.85.85 0 0 1 .001 1.699z"/><path class="st2" d="M20.43 15.19c.6.59.7.7 1.5 1.14M16.82 9.65s.55 2.11 2.14 4M18.38 7.65s.55 2.11 2.14 4"/></svg>